<svg xmlns="http://www.w3.org/2000/svg" width="200mm" height="200mm" viewBox="0 0 200 200"><style>.glaucus{fill:#000}@media (prefers-color-scheme:dark){.glaucus{fill:#fff}}</style><path class="glaucus" d="M123.429 25.768c-21.39 5.226-35.702 28.189-40.095 45.913-.42-6.357-4.028-19.596 5.105-37.877 3.25-6.504 2.59-8.703-2.36-5.439-15.436 10.18-23.17 27.927-25.436 46.588-2.021-3.82-4.127-13.748-3.134-19.12 1.276-6.909.424-12.806-5.26-2.437-17.538 31.994-1.831 77.117 17.18 64.688 2.607-1.706 4.954-5.104 4.775-8.148 3.346 1.489 9.669-2.966 9.906-7.073 2.07 2.528 9.977 2.167 11.679-.573-.604 3.223 6.734 9.98 13.4 7.365-.377 1.512.174 3.792 3.798 6.927 8.6 7.444 32.003-5.79 40.494-38.63 1.866-7.216-2.039-4.856-5.339-.87-8.074 9.753-17.429 10.44-22.304 13.042 4.473-7.305 10.883-31.12 41.348-44.916 12.138-5.497 4.242-7.079-2.955-7.024-28.37.218-50.752 24.187-56.107 31.66 3.714-11.304 6.349-26.335 20.354-38.645 7.203-6.331.352-6.75-5.05-5.431zm3.453 2.654c-20.673 20.8-18.528 40.154-25.97 58.013 15.291-33.324 56.226-49.12 66.347-44.413-39.815 18.593-37.797 41.626-47.48 54.183 11.746-4.926 19.323-5.136 29.13-14.63-1.582 13.486-23.818 41.462-34.12 31.738-2.795-2.638-2.798-5.42-1.387-9.303-7.726 6.414-17.594-.794-15.395-8.11-3.23 6.421-13.463 7.101-15.666.027 1.824 7.83-9.301 13.873-13.74 8.531 2.502 3.958 2.817 8.165-.636 10.4-15.041 9.73-28.79-28.491-13.266-58.968-.955 8.871 1.347 15.173 4.446 22.908 3.853 9.614 5.734 17.963 5.734 17.963-4.006-22.445 1.79-47.115 19.75-63.466-10.931 25.797-3.972 33.964-2.67 53.242 2.598-21.998 20.665-55.593 44.923-58.115Zm-65.145 98.416c-4.559 10.131-5.004 15.264-4.31 22.834.36 3.903 2.14 7.642 5.985 7.448 3.054-.155 4.49-4.878 3.24-8.107-2.403-6.202-5.826-14.09-3.66-20.696 1.161-3.538.408-5.177-1.255-1.479zm101.99 5.774c-1.776.04-4.666 1.044-6.232 2.276-2.244 1.765-2.603 5.13.178 8.532 3.336 4.082 2.654 7.3-3.052 4.804-3.83-1.675-6.005-.557-6.644 3.757-.395 2.666 2.028 4.848 5.848 5.605 5.862 1.162 10.133-.092 12.013-4.696 1.405-3.44-.255-6.27-2.565-8.947-4.788-5.55-4.868-7.7.77-9.435 2.528-.777 1.65-1.94-.316-1.896zm-102.797.07c-.52 7.246 3.529 12.958 4.185 18.795.123 1.096.157 3.05-1.746 3.754-1.8.667-3.283-1.45-3.825-4.678-1.088-6.47-.073-11.49 1.386-17.87zm-17.21.474c-8.51.202-11.391 4.897-11.321 12.329.057 6.18 8.192 11.444 14.337 7.458.253 7.4-2.576 15.163-9.268 18.668-2.701 1.414-1.429 3.426.695 3.075 11.384-1.882 17.447-12.44 16.812-25.769-.395-8.286-2.745-15.964-11.255-15.761zm34.466 2.402c-5.201-.037-8.438 2.62-8.784 8.83-.247 4.428 4.193 9.168 9.474 8.773 4.14-.31 5.864-2.8 7.982.774 3.649-9.396-.548-18.319-8.672-18.377zm-25.16 13.862c.53 7.726-3.656 19.785-11.984 22.528 6.253-5.776 10.574-17.112 6.189-22.47-1.735 2.976-10.82 5.16-12.075-4.223-.762-5.69 2.305-9.526 8.566-9.474 6.26.052 8.934 8.263 9.304 13.639zm105.5-12.927c-1.913 3.474 2.412 7.159 3.147 7.98 2.105 2.35 3.605 5.301 2.061 8.216-2.068 3.905-5.599 3.775-9.676 2.768-2.42-.597-4.719-1.83-4.342-3.737.363-1.834 1.517-2.984 4.582-1.543 5.306 2.494 9.542-.409 6.77-4.7-3.818-5.905-3.707-6.494-2.542-8.984zm-66.884 7.616c-.222 6.726 4.017 9.604 8.127 9.568 5.458-.05 7.87-4.13 8.224-9.92.226-3.688-.316-6.45-1.563-6.45-.799 0-1.259 2.183-1.51 4.05-.38 2.843-1.736 3.799-2.892 3.7-.77-.066-2.002-.17-1.895-2.412.167-3.472.415-5.3-3.706-5.435-4.12-.135-4.637 2.418-4.785 6.9zm38.353 0c-.222 6.726 4.017 9.604 8.128 9.568 5.458-.05 7.87-4.13 8.223-9.92.226-3.688-.315-6.45-1.563-6.45-.798 0-1.258 2.183-1.509 4.05-.381 2.843-1.736 3.799-2.893 3.7-.77-.066-2.002-.17-1.894-2.412.166-3.472.414-5.3-3.707-5.435-4.12-.135-4.637 2.418-4.785 6.9zm-19.485 1.173c.05 5.458 4.13 7.87 9.92 8.224 3.688.226 6.45-.316 6.45-1.563 0-.799-2.183-1.259-4.051-1.51-2.842-.38-3.798-1.736-3.699-2.892.066-.77.17-2.002 2.412-1.895 3.472.167 5.3.415 5.595-3.59.306-4.165-2.279-4.743-8.12-4.8-5.842-.058-8.542 4.044-8.507 8.026zm-32.494-7.77c7.214-.084 8.867 8.024 7.68 12.97-.87-2.223-5.484.044-7.077.147-3.205.207-7.513-2.257-7.044-6.6.51-4.708 2.804-6.474 6.441-6.517zm20.388 5.36c-.18 2.721 1.435 4.193 3.67 4.14 2.343-.055 3.95-1.884 4.603-6.318.607 5.473-1.444 11.362-6.869 11.374-4.015.01-6.5-2.987-6.361-7.978.113-4.096.475-5.25 3.122-5.194 2.646.057 2.014 1.277 1.835 3.976zm38.353 0c-.18 2.721 1.435 4.193 3.67 4.14 2.343-.055 3.95-1.884 4.603-6.318.608 5.473-1.444 11.362-6.868 11.374-4.016.01-6.5-2.987-6.362-7.978.114-4.096.476-5.25 3.122-5.194 2.647.057 2.015 1.277 1.835 3.976zm-11.387-.94c-.136 2.796-1.356 2.164-4.055 1.985-2.72-.18-4.193 1.435-4.14 3.67.055 2.343 1.885 3.95 6.318 4.603-5.473.607-11.361-1.444-11.374-6.868-.009-3.89 2.803-6.344 7.575-6.292 4.772.051 5.795.455 5.676 2.902z" style="opacity:1;fill-opacity:1;stroke-width:.61663538;"/></svg>
